<svg width="207" height="66" viewBox="0 0 207 66" fill="none" xmlns="http://www.w3.org/2000/svg">
<rect width="65" height="65" rx="32.5" fill="#A39DE8"/>
<path d="M24.103 29.1396L12.781 64.9999H52.2192L43.539 14.6067L29.9527 39.1427L24.103 29.1396Z" fill="#EDF2FD" stroke="#EDF2FD"/>
<circle cx="26.4747" cy="49.4804" r="2.00843" fill="#A39DE8"/>
<circle cx="39.2555" cy="49.4804" r="2.00843" fill="#A39DE8"/>
<path d="M102.864 26.696C105.36 26.696 107.34 27.452 108.804 28.964C110.292 30.476 111.036 32.576 111.036 35.264V47H104.916V36.092C104.916 34.796 104.568 33.8 103.872 33.104C103.2 32.384 102.264 32.024 101.064 32.024C99.864 32.024 98.916 32.384 98.22 33.104C97.548 33.8 97.212 34.796 97.212 36.092V47H91.092V36.092C91.092 34.796 90.744 33.8 90.048 33.104C89.376 32.384 88.44 32.024 87.24 32.024C86.04 32.024 85.092 32.384 84.396 33.104C83.724 33.8 83.388 34.796 83.388 36.092V47H77.232V26.912H83.388V29.432C84.012 28.592 84.828 27.932 85.836 27.452C86.844 26.948 87.984 26.696 89.256 26.696C90.768 26.696 92.112 27.02 93.288 27.668C94.488 28.316 95.424 29.24 96.096 30.44C96.792 29.336 97.74 28.436 98.94 27.74C100.14 27.044 101.448 26.696 102.864 26.696ZM134.277 36.632C134.277 37.208 134.241 37.808 134.169 38.432H120.237C120.333 39.68 120.729 40.64 121.425 41.312C122.145 41.96 123.021 42.284 124.053 42.284C125.589 42.284 126.657 41.636 127.257 40.34H133.809C133.473 41.66 132.861 42.848 131.973 43.904C131.109 44.96 130.017 45.788 128.697 46.388C127.377 46.988 125.901 47.288 124.269 47.288C122.301 47.288 120.549 46.868 119.013 46.028C117.477 45.188 116.277 43.988 115.413 42.428C114.549 40.868 114.117 39.044 114.117 36.956C114.117 34.868 114.537 33.044 115.377 31.484C116.241 29.924 117.441 28.724 118.977 27.884C120.513 27.044 122.277 26.624 124.269 26.624C126.213 26.624 127.941 27.032 129.453 27.848C130.965 28.664 132.141 29.828 132.981 31.34C133.845 32.852 134.277 34.616 134.277 36.632ZM127.977 35.012C127.977 33.956 127.617 33.116 126.897 32.492C126.177 31.868 125.277 31.556 124.197 31.556C123.165 31.556 122.289 31.856 121.569 32.456C120.873 33.056 120.441 33.908 120.273 35.012H127.977ZM156.461 36.632C156.461 37.208 156.425 37.808 156.353 38.432H142.421C142.517 39.68 142.913 40.64 143.609 41.312C144.329 41.96 145.205 42.284 146.237 42.284C147.773 42.284 148.841 41.636 149.441 40.34H155.993C155.657 41.66 155.045 42.848 154.157 43.904C153.293 44.96 152.201 45.788 150.881 46.388C149.561 46.988 148.085 47.288 146.453 47.288C144.485 47.288 142.733 46.868 141.197 46.028C139.661 45.188 138.461 43.988 137.597 42.428C136.733 40.868 136.301 39.044 136.301 36.956C136.301 34.868 136.721 33.044 137.561 31.484C138.425 29.924 139.625 28.724 141.161 27.884C142.697 27.044 144.461 26.624 146.453 26.624C148.397 26.624 150.125 27.032 151.637 27.848C153.149 28.664 154.325 29.828 155.165 31.34C156.029 32.852 156.461 34.616 156.461 36.632ZM150.161 35.012C150.161 33.956 149.801 33.116 149.081 32.492C148.361 31.868 147.461 31.556 146.381 31.556C145.349 31.556 144.473 31.856 143.753 32.456C143.057 33.056 142.625 33.908 142.457 35.012H150.161ZM167.341 26.624C168.757 26.624 169.993 26.912 171.049 27.488C172.129 28.064 172.957 28.82 173.533 29.756V26.912H179.689V46.964C179.689 48.812 179.317 50.48 178.573 51.968C177.853 53.48 176.737 54.68 175.225 55.568C173.737 56.456 171.877 56.9 169.645 56.9C166.669 56.9 164.257 56.192 162.409 54.776C160.561 53.384 159.505 51.488 159.241 49.088H165.325C165.517 49.856 165.973 50.456 166.693 50.888C167.413 51.344 168.301 51.572 169.357 51.572C170.629 51.572 171.637 51.2 172.381 50.456C173.149 49.736 173.533 48.572 173.533 46.964V44.12C172.933 45.056 172.105 45.824 171.049 46.424C169.993 47 168.757 47.288 167.341 47.288C165.685 47.288 164.185 46.868 162.841 46.028C161.497 45.164 160.429 43.952 159.637 42.392C158.869 40.808 158.485 38.984 158.485 36.92C158.485 34.856 158.869 33.044 159.637 31.484C160.429 29.924 161.497 28.724 162.841 27.884C164.185 27.044 165.685 26.624 167.341 26.624ZM173.533 36.956C173.533 35.42 173.101 34.208 172.237 33.32C171.397 32.432 170.365 31.988 169.141 31.988C167.917 31.988 166.873 32.432 166.009 33.32C165.169 34.184 164.749 35.384 164.749 36.92C164.749 38.456 165.169 39.68 166.009 40.592C166.873 41.48 167.917 41.924 169.141 41.924C170.365 41.924 171.397 41.48 172.237 40.592C173.101 39.704 173.533 38.492 173.533 36.956ZM203.978 26.912V47H197.822V44.264C197.198 45.152 196.346 45.872 195.266 46.424C194.21 46.952 193.034 47.216 191.738 47.216C190.202 47.216 188.846 46.88 187.67 46.208C186.494 45.512 185.582 44.516 184.934 43.22C184.286 41.924 183.962 40.4 183.962 38.648V26.912H190.082V37.82C190.082 39.164 190.43 40.208 191.126 40.952C191.822 41.696 192.758 42.068 193.934 42.068C195.134 42.068 196.082 41.696 196.778 40.952C197.474 40.208 197.822 39.164 197.822 37.82V26.912H203.978Z" fill="#A39DE8"/>
</svg>
